<svg width="128" height="20" viewBox="0 0 128 20" fill="none" xmlns="http://www.w3.org/2000/svg">
<path d="M37.62 4.192H40.986C41.646 4.192 42.246 4.252 42.786 4.372C43.338 4.492 43.806 4.69 44.19 4.966C44.574 5.23 44.874 5.584 45.09 6.028C45.306 6.472 45.414 7.018 45.414 7.666C45.414 8.29 45.306 8.83 45.09 9.286C44.886 9.742 44.592 10.12 44.208 10.42C43.824 10.72 43.362 10.948 42.822 11.104C42.294 11.248 41.706 11.32 41.058 11.32H39.114V16H37.62V4.192ZM40.878 10.096C41.91 10.096 42.672 9.904 43.164 9.52C43.668 9.124 43.92 8.506 43.92 7.666C43.92 6.814 43.656 6.226 43.128 5.902C42.612 5.566 41.838 5.398 40.806 5.398H39.114V10.096H40.878ZM52.9093 9.79H54.8893C55.8133 9.79 56.5213 9.604 57.0133 9.232C57.5053 8.848 57.7513 8.272 57.7513 7.504C57.7513 6.724 57.5053 6.178 57.0133 5.866C56.5213 5.554 55.8133 5.398 54.8893 5.398H52.9093V9.79ZM57.8953 16L55.0513 11.014H52.9093V16H51.4153V4.192H55.1053C55.7053 4.192 56.2573 4.252 56.7613 4.372C57.2773 4.48 57.7153 4.666 58.0753 4.93C58.4473 5.194 58.7353 5.536 58.9393 5.956C59.1433 6.376 59.2453 6.892 59.2453 7.504C59.2453 8.428 59.0053 9.166 58.5253 9.718C58.0453 10.27 57.4033 10.648 56.5993 10.852L59.5873 16H57.8953ZM69.6194 16.216C68.8754 16.216 68.1914 16.072 67.5674 15.784C66.9554 15.496 66.4274 15.088 65.9834 14.56C65.5394 14.02 65.1914 13.372 64.9394 12.616C64.6994 11.848 64.5794 10.99 64.5794 10.042C64.5794 9.094 64.6994 8.248 64.9394 7.504C65.1914 6.748 65.5394 6.112 65.9834 5.596C66.4274 5.068 66.9554 4.666 67.5674 4.39C68.1914 4.114 68.8754 3.976 69.6194 3.976C70.3634 3.976 71.0414 4.12 71.6534 4.408C72.2774 4.684 72.8114 5.086 73.2554 5.614C73.7114 6.13 74.0594 6.766 74.2994 7.522C74.5514 8.266 74.6774 9.106 74.6774 10.042C74.6774 10.99 74.5514 11.848 74.2994 12.616C74.0594 13.372 73.7114 14.02 73.2554 14.56C72.8114 15.088 72.2774 15.496 71.6534 15.784C71.0414 16.072 70.3634 16.216 69.6194 16.216ZM69.6194 14.902C70.1474 14.902 70.6214 14.788 71.0414 14.56C71.4734 14.332 71.8394 14.008 72.1394 13.588C72.4514 13.156 72.6914 12.646 72.8594 12.058C73.0274 11.458 73.1114 10.786 73.1114 10.042C73.1114 9.31 73.0274 8.65 72.8594 8.062C72.6914 7.474 72.4514 6.976 72.1394 6.568C71.8394 6.16 71.4734 5.848 71.0414 5.632C70.6214 5.404 70.1474 5.29 69.6194 5.29C69.0914 5.29 68.6114 5.404 68.1794 5.632C67.7594 5.848 67.3934 6.16 67.0814 6.568C66.7814 6.976 66.5474 7.474 66.3794 8.062C66.2114 8.65 66.1274 9.31 66.1274 10.042C66.1274 10.786 66.2114 11.458 66.3794 12.058C66.5474 12.646 66.7814 13.156 67.0814 13.588C67.3934 14.008 67.7594 14.332 68.1794 14.56C68.6114 14.788 69.0914 14.902 69.6194 14.902ZM82.2918 16.216C80.8158 16.216 79.7298 15.586 79.0338 14.326L80.1138 13.57C80.3778 14.038 80.6778 14.38 81.0138 14.596C81.3498 14.8 81.7278 14.902 82.1478 14.902C82.7838 14.902 83.2578 14.71 83.5698 14.326C83.8818 13.93 84.0378 13.282 84.0378 12.382V4.192H85.5498V12.526C85.5498 13.03 85.4838 13.51 85.3518 13.966C85.2318 14.41 85.0398 14.8 84.7758 15.136C84.5238 15.472 84.1878 15.736 83.7678 15.928C83.3598 16.12 82.8678 16.216 82.2918 16.216ZM92.3442 4.192H99.1482V5.452H93.8382V9.16H98.3202V10.438H93.8382V14.722H99.3282V16H92.3442V4.192ZM109.9 16.216C109.156 16.216 108.472 16.078 107.848 15.802C107.224 15.526 106.678 15.13 106.21 14.614C105.754 14.086 105.394 13.444 105.13 12.688C104.878 11.92 104.752 11.056 104.752 10.096C104.752 9.148 104.884 8.296 105.148 7.54C105.412 6.784 105.778 6.142 106.246 5.614C106.714 5.086 107.266 4.684 107.902 4.408C108.538 4.12 109.234 3.976 109.99 3.976C110.71 3.976 111.34 4.126 111.88 4.426C112.432 4.714 112.882 5.05 113.23 5.434L112.42 6.406C112.108 6.07 111.754 5.8 111.358 5.596C110.962 5.392 110.512 5.29 110.008 5.29C109.444 5.29 108.934 5.404 108.478 5.632C108.022 5.848 107.632 6.166 107.308 6.586C106.984 6.994 106.732 7.492 106.552 8.08C106.384 8.668 106.3 9.328 106.3 10.06C106.3 10.804 106.384 11.476 106.552 12.076C106.732 12.664 106.978 13.168 107.29 13.588C107.602 14.008 107.98 14.332 108.424 14.56C108.88 14.788 109.39 14.902 109.954 14.902C110.53 14.902 111.034 14.788 111.466 14.56C111.898 14.32 112.306 13.99 112.69 13.57L113.518 14.506C113.05 15.046 112.522 15.466 111.934 15.766C111.346 16.066 110.668 16.216 109.9 16.216ZM121.451 5.452H117.887V4.192H126.527V5.452H122.963V16H121.451V5.452Z" fill="white"/>
<g clip-path="url(#clip0_2_99)">
<path fill-rule="evenodd" clip-rule="evenodd" d="M19.9897 9.53128C19.8987 7.5956 19.2473 5.72804 18.1147 4.15571C16.982 2.58338 15.4169 1.37401 13.6097 0.674664C11.8024 -0.0246825 9.83095 -0.183877 7.93493 0.216439C6.03891 0.616755 4.30004 1.55933 2.92978 2.92956C1.55951 4.29979 0.616876 6.03862 0.216502 7.93463C-0.183872 9.83064 -0.0247373 11.8021 0.674554 13.6094C1.37385 15.4166 2.58317 16.9818 4.15547 18.1145C5.72776 19.2472 7.5953 19.8987 9.53098 19.9897C10.9207 20.0509 12.308 19.8223 13.6046 19.3183C14.9012 18.8144 16.0787 18.0462 17.0624 17.0626C18.046 16.079 18.8143 14.9014 19.3182 13.6048C19.8222 12.3083 20.0509 10.921 19.9897 9.53128ZM4.01796 8.24557C3.9447 8.196 3.88982 8.12367 3.86181 8.03977C3.83381 7.95587 3.83424 7.86507 3.86304 7.78144C4.26226 6.67526 4.95326 5.69766 5.86285 4.95224C6.77245 4.20682 7.86674 3.72133 9.02979 3.54721C10.1928 3.37309 11.3813 3.51683 12.4694 3.9632C13.5574 4.40956 14.5044 5.14194 15.21 6.08271C15.6862 6.71763 15.0408 7.37223 14.1376 8.05097C13.2742 8.70049 12.4161 9.22906 12.4161 9.22906C12.1597 9.36209 11.8716 9.42183 11.5835 9.40173C11.2954 9.38162 11.0184 9.28244 10.783 9.11509L9.40463 8.13541C9.1692 7.96828 8.89227 7.86925 8.60425 7.8492C8.31623 7.82915 8.02824 7.88885 7.77193 8.02176L6.27035 8.80049C6.014 8.9332 5.72606 8.99275 5.4381 8.97259C5.15015 8.95243 4.87331 8.85334 4.63796 8.6862L4.0205 8.24779L4.01796 8.24557ZM16.1383 12.2195C15.739 13.3257 15.0479 14.3033 14.1383 15.0488C13.2287 15.7942 12.1344 16.2797 10.9713 16.4538C9.80818 16.628 8.61965 16.4843 7.53158 16.038C6.44351 15.5916 5.49643 14.8593 4.79066 13.9186C4.31447 13.2837 4.96019 12.6287 5.86304 11.9503C6.72654 11.3002 7.58495 10.7716 7.58495 10.7716C7.84132 10.6387 8.12936 10.5791 8.41741 10.5993C8.70546 10.6196 8.98235 10.7188 9.21765 10.8862L10.5964 11.8656C10.8318 12.0327 11.1087 12.1318 11.3967 12.1519C11.6847 12.1721 11.9727 12.1126 12.2291 11.9799L13.731 11.2018C13.9873 11.069 14.2752 11.0093 14.5632 11.0294C14.8511 11.0496 15.128 11.1486 15.3634 11.3157L15.9802 11.7541C15.9812 11.7549 15.9822 11.7555 15.9834 11.756C16.0566 11.8057 16.1115 11.8781 16.1395 11.962C16.1675 12.046 16.1671 12.1368 16.1383 12.2205V12.2195Z" fill="#55C2D8"/>
</g>
<defs>
<clipPath id="clip0_2_99">
<rect width="20" height="20" fill="white"/>
</clipPath>
</defs>
</svg>
